<svg xmlns="http://www.w3.org/2000/svg" viewBox="0 0 1600 900" role="img" aria-label="Jobsite placeholder — replace with warm-mono treated field photography">
  <defs>
    <linearGradient id="sky" x1="0" y1="0" x2="0" y2="1">
      <stop offset="0" stop-color="#2A2E34"></stop>
      <stop offset="1" stop-color="#4A4237"></stop>
    </linearGradient>
    <linearGradient id="floor" x1="0" y1="0" x2="0" y2="1">
      <stop offset="0" stop-color="#3A342C"></stop>
      <stop offset="1" stop-color="#1A1713"></stop>
    </linearGradient>
  </defs>
  <rect width="1600" height="900" fill="url(#sky)"></rect>
  <rect y="560" width="1600" height="340" fill="url(#floor)"></rect>
  
  <g fill="#1A1C1F" opacity="0.65">
    <rect x="80" y="380" width="200" height="180"></rect>
    <rect x="320" y="320" width="160" height="240"></rect>
    <rect x="1200" y="340" width="240" height="220"></rect>
    <rect x="1450" y="400" width="100" height="160"></rect>
    
    <rect x="360" y="260" width="6" height="60"></rect>
    <rect x="420" y="240" width="6" height="80"></rect>
    <rect x="1260" y="280" width="6" height="60"></rect>
  </g>
  
  <g stroke="#B6BBC2" stroke-width="6" fill="none" opacity="0.55">
    <line x1="600" y1="330" x2="600" y2="600"></line>
    <line x1="1000" y1="330" x2="1000" y2="600"></line>
    <line x1="600" y1="330" x2="1000" y2="330"></line>
    <line x1="600" y1="330" x2="660" y2="420"></line>
    <line x1="1000" y1="330" x2="940" y2="420"></line>
    
    <rect x="780" y="328" width="40" height="10" fill="#B6BBC2"></rect>
    <line x1="800" y1="338" x2="800" y2="480"></line>
  </g>
  
  <g opacity="0.08">
    <rect width="1600" height="900" fill="#F5B700" style="mix-blend-mode: overlay"></rect>
  </g>
</svg>