<svg xmlns="http://www.w3.org/2000/svg" viewBox="0 0 800 500" role="img" aria-label="Aluminum gantry crane (placeholder illustration — replace with field photography)">
  <defs>
    <pattern id="grid" width="40" height="40" patternUnits="userSpaceOnUse">
      <path d="M40 0H0V40" fill="none" stroke="#B6BBC2" stroke-width="0.5"></path>
    </pattern>
    <pattern id="noise" width="4" height="4" patternUnits="userSpaceOnUse">
      <rect width="4" height="4" fill="#ECEAE3"></rect>
      <circle cx="1" cy="1" r="0.3" fill="#B6BBC2"></circle>
      <circle cx="3" cy="3" r="0.2" fill="#B6BBC2"></circle>
    </pattern>
  </defs>
  <rect width="800" height="500" fill="url(#noise)"></rect>
  <rect width="800" height="500" fill="url(#grid)" opacity="0.35"></rect>
  
  <g stroke="#0D0F12" stroke-width="2.5" fill="none">
    
    <line x1="180" y1="120" x2="180" y2="400"></line>
    <line x1="140" y1="400" x2="220" y2="400"></line>
    
    <line x1="620" y1="120" x2="620" y2="400"></line>
    <line x1="580" y1="400" x2="660" y2="400"></line>
    
    <line x1="180" y1="120" x2="620" y2="120"></line>
    <line x1="180" y1="130" x2="620" y2="130"></line>
    
    <line x1="180" y1="120" x2="240" y2="200"></line>
    <line x1="620" y1="120" x2="560" y2="200"></line>
    
    <rect x="380" y="130" width="40" height="18"></rect>
    
    <line x1="400" y1="148" x2="400" y2="260"></line>
    <path d="M390 260 Q400 285 410 260 Q408 250 400 250 Q392 250 390 260 Z"></path>
    
    <rect x="360" y="290" width="80" height="60" fill="#0D0F12" fill-opacity="0.06"></rect>
    
    <circle cx="180" cy="410" r="10"></circle>
    <circle cx="620" cy="410" r="10"></circle>
  </g>
  
  <g font-family="JetBrains Mono, monospace" font-size="10" fill="#3A3F46" letter-spacing="0.1em">
    <line x1="180" y1="440" x2="620" y2="440" stroke="#3A3F46" stroke-width="0.6"></line>
    <line x1="180" y1="435" x2="180" y2="445" stroke="#3A3F46"></line>
    <line x1="620" y1="435" x2="620" y2="445" stroke="#3A3F46"></line>
    <text x="400" y="458" text-anchor="middle">SPAN · 14&#39;</text>
    <line x1="110" y1="120" x2="110" y2="400" stroke="#3A3F46" stroke-width="0.6"></line>
    <line x1="105" y1="120" x2="115" y2="120" stroke="#3A3F46"></line>
    <line x1="105" y1="400" x2="115" y2="400" stroke="#3A3F46"></line>
    <text x="102" y="264" text-anchor="end" transform="rotate(-90 102 264)">HEIGHT · 12&#39;</text>
  </g>
  
  <g font-family="Space Grotesk, sans-serif">
    <text x="40" y="60" font-size="24" font-weight="700" fill="#0D0F12">eme 11000</text>
    <text x="40" y="84" font-family="JetBrains Mono, monospace" font-size="11" fill="#3A3F46" letter-spacing="0.1em">5 TONNE · 11,000 LB · ALUMINUM</text>
  </g>
  <rect x="740" y="40" width="10" height="10" fill="#C8102E"></rect>
</svg>