<svg xmlns="http://www.w3.org/2000/svg" viewBox="0 0 800 500" role="img" aria-label="Aluminum davit crane (placeholder illustration — replace with field photography)">
  <defs>
    <pattern id="grid2" width="40" height="40" patternUnits="userSpaceOnUse">
      <path d="M40 0H0V40" fill="none" stroke="#B6BBC2" stroke-width="0.5"></path>
    </pattern>
  </defs>
  <rect width="800" height="500" fill="#ECEAE3"></rect>
  <rect width="800" height="500" fill="url(#grid2)" opacity="0.35"></rect>
  <g stroke="#0D0F12" stroke-width="2.5" fill="none">
    
    <rect x="330" y="420" width="140" height="20" fill="#0D0F12" fill-opacity="0.08"></rect>
    <line x1="300" y1="440" x2="500" y2="440"></line>
    
    <line x1="400" y1="420" x2="400" y2="140"></line>
    <line x1="390" y1="420" x2="390" y2="140"></line>
    
    <line x1="395" y1="140" x2="620" y2="180"></line>
    
    <line x1="395" y1="220" x2="560" y2="170"></line>
    
    <line x1="620" y1="180" x2="620" y2="300"></line>
    <path d="M610 300 Q620 325 630 300 Q628 290 620 290 Q612 290 610 300 Z"></path>
    <rect x="590" y="330" width="60" height="45" fill="#0D0F12" fill-opacity="0.06"></rect>
  </g>
  <g font-family="JetBrains Mono, monospace" font-size="10" fill="#3A3F46" letter-spacing="0.1em">
    <text x="40" y="470" font-size="11">SOCKET-MOUNTED · MANHOLE / ROOFTOP / CONFINED SPACE</text>
  </g>
  <g font-family="Space Grotesk, sans-serif">
    <text x="40" y="60" font-size="24" font-weight="700" fill="#0D0F12">eme 2200 Davit</text>
    <text x="40" y="84" font-family="JetBrains Mono, monospace" font-size="11" fill="#3A3F46" letter-spacing="0.1em">1 TONNE · 2,200 LB · ALUMINUM</text>
  </g>
  <rect x="740" y="40" width="10" height="10" fill="#C8102E"></rect>
</svg>